<svg xmlns="http://www.w3.org/2000/svg" viewBox="0 0 512 512" role="img" aria-labelledby="title desc">
  <title id="title">xk 阅读候选 A 图标</title>
  <desc id="desc">墨黑金色学术徽章，抽象论文页与知识光环。</desc>
  <defs>
    <linearGradient id="a-bg" x1="64" y1="36" x2="448" y2="476" gradientUnits="userSpaceOnUse">
      <stop offset="0" stop-color="#1f211d"/>
      <stop offset=".52" stop-color="#0f1110"/>
      <stop offset="1" stop-color="#2a2112"/>
    </linearGradient>
    <linearGradient id="a-gold" x1="129" y1="132" x2="388" y2="392" gradientUnits="userSpaceOnUse">
      <stop offset="0" stop-color="#fff0b8"/>
      <stop offset=".42" stop-color="#d6a83f"/>
      <stop offset="1" stop-color="#8f6418"/>
    </linearGradient>
    <filter id="a-soft" x="-20%" y="-20%" width="140%" height="140%">
      <feDropShadow dx="0" dy="18" stdDeviation="24" flood-color="#000" flood-opacity=".35"/>
    </filter>
  </defs>
  <rect width="512" height="512" rx="116" fill="url(#a-bg)"/>
  <circle cx="256" cy="256" r="172" fill="none" stroke="#d6a83f" stroke-width="8" stroke-opacity=".28"/>
  <circle cx="256" cy="256" r="132" fill="none" stroke="#fff0b8" stroke-width="2" stroke-dasharray="3 15" stroke-opacity=".48"/>
  <g filter="url(#a-soft)">
    <path d="M154 151c0-22 17-39 39-39h149c10 0 19 4 26 11l29 30c7 7 11 16 11 26v196c0 22-17 39-39 39H193c-22 0-39-17-39-39V151z" fill="#f7f0df"/>
    <path d="M346 116v48c0 12 10 22 22 22h37" fill="none" stroke="#b99035" stroke-width="14" stroke-linecap="round" stroke-linejoin="round"/>
    <path d="M205 219h132M205 259h102M205 300h142" stroke="#282821" stroke-width="16" stroke-linecap="round" opacity=".86"/>
    <path d="M181 350c74-17 117-54 162-129" fill="none" stroke="url(#a-gold)" stroke-width="14" stroke-linecap="round"/>
    <circle cx="181" cy="350" r="13" fill="#d6a83f"/>
    <circle cx="266" cy="305" r="9" fill="#fff0b8"/>
    <circle cx="343" cy="221" r="13" fill="#d6a83f"/>
  </g>
  <path d="M116 408c52 33 227 42 281-14" fill="none" stroke="#fff0b8" stroke-width="3" stroke-opacity=".18"/>
</svg>
