<svg xmlns="http://www.w3.org/2000/svg" viewBox="0 0 512 512" role="img" aria-labelledby="title desc">
  <title id="title">xk 阅读候选 C 图标</title>
  <desc id="desc">知识树节点与文献页结合的墨黑金色图标。</desc>
  <defs>
    <linearGradient id="c-bg" x1="52" y1="44" x2="460" y2="470" gradientUnits="userSpaceOnUse">
      <stop offset="0" stop-color="#2b2b25"/>
      <stop offset=".5" stop-color="#121310"/>
      <stop offset="1" stop-color="#2c2416"/>
    </linearGradient>
    <linearGradient id="c-gold" x1="128" y1="113" x2="384" y2="405" gradientUnits="userSpaceOnUse">
      <stop offset="0" stop-color="#fff2bd"/>
      <stop offset=".5" stop-color="#d7a83c"/>
      <stop offset="1" stop-color="#835912"/>
    </linearGradient>
    <filter id="c-shadow" x="-20%" y="-20%" width="140%" height="140%">
      <feDropShadow dx="0" dy="18" stdDeviation="20" flood-color="#000" flood-opacity=".42"/>
    </filter>
  </defs>
  <rect width="512" height="512" rx="112" fill="url(#c-bg)"/>
  <g filter="url(#c-shadow)">
    <path d="M146 138c0-20 16-36 36-36h148c20 0 36 16 36 36v236c0 20-16 36-36 36H182c-20 0-36-16-36-36V138z" fill="#f6edd9"/>
    <path d="M190 186h132M190 225h88M190 334h132" stroke="#22231d" stroke-width="15" stroke-linecap="round" opacity=".78"/>
    <path d="M258 154v206M258 259l-72 56M258 259l73 56M258 221l-63-43M258 221l62-43" stroke="url(#c-gold)" stroke-width="11" stroke-linecap="round" stroke-linejoin="round"/>
    <circle cx="258" cy="221" r="18" fill="#d7a83c"/>
    <circle cx="258" cy="259" r="18" fill="#fff2bd"/>
    <circle cx="195" cy="178" r="14" fill="#d7a83c"/>
    <circle cx="320" cy="178" r="14" fill="#d7a83c"/>
    <circle cx="186" cy="315" r="14" fill="#d7a83c"/>
    <circle cx="331" cy="315" r="14" fill="#d7a83c"/>
  </g>
  <path d="M132 410h248" stroke="#d7a83c" stroke-width="5" stroke-linecap="round" opacity=".38"/>
</svg>
